<svg width="200" height="200" viewBox="0 0 200 200" xmlns="http://www.w3.org/2000/svg">
  <!-- 龙猫身体 -->
  <ellipse cx="100" cy="110" rx="70" ry="65" fill="#AAAAAA" />
  
  <!-- 龙猫肚子 -->
  <ellipse cx="100" cy="120" rx="50" ry="45" fill="#DDDDDD" />
  
  <!-- 龙猫耳朵 -->
  <path d="M60 50 L80 80 L100 50 Z" fill="#AAAAAA" />
  <path d="M140 50 L120 80 L100 50 Z" fill="#AAAAAA" />
  
  <!-- 龙猫眼睛 -->
  <circle cx="80" cy="90" r="10" fill="#333333" />
  <circle cx="120" cy="90" r="10" fill="#333333" />
  
  <!-- 龙猫鼻子 -->
  <ellipse cx="100" cy="105" rx="8" ry="5" fill="#333333" />
  
  <!-- 龙猫胡须 -->
  <line x1="92" y1="105" x2="70" y2="100" stroke="#333333" stroke-width="2" />
  <line x1="92" y1="107" x2="70" y2="110" stroke="#333333" stroke-width="2" />
  <line x1="108" y1="105" x2="130" y2="100" stroke="#333333" stroke-width="2" />
  <line x1="108" y1="107" x2="130" y2="110" stroke="#333333" stroke-width="2" />
  
  <!-- 龙猫肚子花纹 -->
  <path d="M85 120 Q100 130 115 120" stroke="#AAAAAA" stroke-width="2" fill="transparent" />
  <path d="M80 130 Q100 140 120 130" stroke="#AAAAAA" stroke-width="2" fill="transparent" />
  <path d="M85 140 Q100 150 115 140" stroke="#AAAAAA" stroke-width="2" fill="transparent" />
  
  <!-- 龙猫小爪子 -->
  <circle cx="70" cy="160" r="10" fill="#AAAAAA" />
  <circle cx="130" cy="160" r="10" fill="#AAAAAA" />
</svg>